<svg xmlns="http://www.w3.org/2000/svg" viewBox="0 0 841.9 595.3">
    <symbol id="icon-taxi" viewBox="0 0 48 48">
        <path d="M9.75 36.85v3q0 .5-.325.825Q9.1 41 8.65 41h-.5q-.5 0-.825-.325Q7 40.35 7 39.85V24.4l4.1-12.25q.15-.55.625-.85.475-.3 1.075-.3h6.7V7.65h9.2V11h6.6q.55 0 1 .3.45.3.6.85L41 24.4v15.45q0 .5-.325.825-.325.325-.825.325h-.5q-.5 0-.825-.325-.325-.325-.325-.825v-3Zm.4-14.75h27.7l-3-8.85h-21.7Zm-.9 2.3v10.2Zm5.15 7.5q1.05 0 1.725-.7t.675-1.7q0-1.05-.7-1.75t-1.7-.7q-1 0-1.725.7-.725.7-.725 1.75t.725 1.725q.725.675 1.725.675Zm19.25 0q1 0 1.725-.7.725-.7.725-1.7 0-1.05-.725-1.75t-1.725-.7q-1.05 0-1.75.7t-.7 1.75q0 1.05.725 1.725t1.725.675Zm-24.4 2.7h29.5V24.4H9.25Z"/>
    </symbol>

    <symbol id="icon-coffee" viewBox="0 0 46 46">
        <path d="M8 42v-3h31.95v3Zm7.55-6q-3.15 0-5.35-2.175Q8 31.65 8 28.5V6h33q1.25 0 2.125.875T44 9v8q0 1.25-.875 2.125T41 20h-4.8v8.5q0 3.15-2.2 5.325Q31.8 36 28.65 36Zm0-3h13.1q1.8 0 3.175-1.375Q33.2 30.25 33.2 28.5V9H11v19.5q0 1.75 1.4 3.125T15.55 33ZM36.2 17H41V9h-4.8Zm-14.1 4Z"/>
    </symbol>

    <symbol id="icon-market" viewBox="0 0 48 48">
        <path d="M8 11V8h32.1v3Zm.25 29V27.1H5.8v-3L8 14h32.05l2.2 10.1v3H39.8V40h-3V27.1h-9.45V40Zm3-3h13.1v-9.9h-13.1Zm-2.5-12.9H39.3Zm0 0H39.3L37.75 17H10.3Z"/>
    </symbol>

    <symbol id="icon-restaurant" viewBox="0 0 48 48">
        <path d="M14.25 44V25.6q-2.6-.55-4.425-2.625Q8 20.9 8 18V4h3v14h3.25V4h3v14h3.25V4h3v14q0 2.9-1.825 4.975Q19.85 25.05 17.25 25.6V44ZM35 44V28h-5.75V12.75q0-3.95 2.4-6.35Q34.05 4 38 4v40Z"/>
    </symbol>

    <symbol id="icon-delete" viewBox="0 0 48 48">
        <path xmlns="http://www.w3.org/2000/svg" d="M13.05 42q-1.25 0-2.125-.875T10.05 39V10.5H8v-3h9.4V6h13.2v1.5H40v3h-2.05V39q0 1.2-.9 2.1-.9.9-2.1.9Zm21.9-31.5h-21.9V39h21.9Zm-16.6 24.2h3V14.75h-3Zm8.3 0h3V14.75h-3Zm-13.6-24.2V39Z"/>
    </symbol>

    <symbol id="icon-profile" viewBox="0 0 48 48">
        <path xmlns="http://www.w3.org/2000/svg" d="M11.1 35.25q3.15-2.2 6.25-3.375Q20.45 30.7 24 30.7q3.55 0 6.675 1.175t6.275 3.375q2.2-2.7 3.125-5.45Q41 27.05 41 24q0-7.25-4.875-12.125T24 7q-7.25 0-12.125 4.875T7 24q0 3.05.95 5.8t3.15 5.45ZM24 25.5q-2.9 0-4.875-1.975T17.15 18.65q0-2.9 1.975-4.875T24 11.8q2.9 0 4.875 1.975t1.975 4.875q0 2.9-1.975 4.875T24 25.5ZM24 44q-4.1 0-7.75-1.575-3.65-1.575-6.375-4.3-2.725-2.725-4.3-6.375Q4 28.1 4 24q0-4.15 1.575-7.775t4.3-6.35q2.725-2.725 6.375-4.3Q19.9 4 24 4q4.15 0 7.775 1.575t6.35 4.3q2.725 2.725 4.3 6.35Q44 19.85 44 24q0 4.1-1.575 7.75-1.575 3.65-4.3 6.375-2.725 2.725-6.35 4.3Q28.15 44 24 44Zm0-3q2.75 0 5.375-.8t5.175-2.8q-2.55-1.8-5.2-2.75-2.65-.95-5.35-.95-2.7 0-5.35.95-2.65.95-5.2 2.75 2.55 2 5.175 2.8Q21.25 41 24 41Zm0-18.5q1.7 0 2.775-1.075t1.075-2.775q0-1.7-1.075-2.775T24 14.8q-1.7 0-2.775 1.075T20.15 18.65q0 1.7 1.075 2.775T24 22.5Zm0-3.85Zm0 18.7Z"/>
    </symbol>
</svg>
